<?xml version="1.0" standalone="no"?>
<!DOCTYPE svg PUBLIC "-//W3C//DTD SVG 20010904//EN"
 "http://www.w3.org/TR/2001/REC-SVG-20010904/DTD/svg10.dtd">
<svg version="1.0" xmlns="http://www.w3.org/2000/svg"
 width="484.000000pt" height="484.000000pt" viewBox="0 0 484.000000 484.000000"
 preserveAspectRatio="xMidYMid meet">
<metadata>
Created by potrace 1.11, written by Peter Selinger 2001-2013
</metadata>
<g transform="translate(0.000000,484.000000) scale(0.100000,-0.100000)"
fill="#000000" stroke="none">
<path d="M465 3911 c-180 -53 -301 -153 -370 -304 -55 -120 -56 -135 -53
-1234 3 -945 5 -1011 22 -1063 60 -182 194 -316 376 -377 52 -17 142 -18 1920
-21 1219 -2 1892 1 1942 7 245 33 419 186 479 421 12 45 14 238 14 1090 l0
1035 -28 78 c-65 184 -184 302 -367 364 -53 17 -139 18 -1965 20 -1803 2
-1913 1 -1970 -16z m3929 -128 c82 -31 161 -94 207 -166 79 -122 73 -42 77
-1169 3 -1098 4 -1076 -54 -1189 -33 -66 -107 -140 -173 -173 -114 -59 -12
-56 -2027 -56 -1218 0 -1870 3 -1905 10 -179 34 -316 172 -349 352 -7 36 -10
401 -8 1064 l3 1009 22 57 c52 137 144 221 293 269 52 17 156 18 1955 16
l1900 -2 59 -22z"/>
<path d="M455 3656 c-63 -30 -112 -78 -139 -136 -21 -44 -21 -59 -24 -719 -2
-597 -1 -680 14 -730 30 -104 98 -170 198 -191 36 -8 597 -10 1946 -8 l1895 3
45 21 c58 26 108 76 134 134 21 44 21 60 24 715 4 769 5 757 -74 844 -85 95
129 86 -2049 88 l-1920 3 -50 -24z m3944 -69 c30 -20 50 -44 67 -82 l24 -53
-2 -694 -3 -694 -28 -43 c-20 -30 -44 -50 -81 -67 l-53 -24 -1920 2 -1919 3
-43 28 c-30 20 -50 44 -67 82 l-25 53 3 695 3 695 30 43 c17 23 50 53 74 66
l45 23 1926 -2 1926 -3 43 -28z"/>
<path d="M550 2785 l0 -625 60 0 60 0 0 250 0 250 233 0 232 0 78 78 77 77 0
220 0 220 -78 78 -77 77 -293 0 -292 0 0 -625z m375 490 c105 -8 196 -15 203
-15 9 0 12 -56 12 -225 l0 -225 -27 0 c-16 0 -104 -7 -198 -15 -93 -8 -187
-15 -207 -15 l-38 0 0 259 0 260 33 -5 c17 -2 118 -11 222 -19z"/>
<path d="M2610 2785 l0 -625 60 0 60 0 0 200 c0 110 3 200 6 200 4 0 98 -90
211 -200 l204 -200 82 0 82 0 -120 123 c-66 67 -162 166 -214 219 l-94 97 207
213 208 213 -77 3 -77 3 -209 -202 -209 -201 0 391 0 391 -60 0 -60 0 0 -625z"/>
<path d="M3670 3405 c0 -4 48 -60 107 -125 l106 -120 85 0 84 0 -19 24 c-10
13 -58 69 -108 125 l-90 100 -82 1 c-46 0 -83 -2 -83 -5z"/>
<path d="M1622 2957 l-72 -72 0 -285 0 -285 78 -78 77 -77 215 0 215 0 78 78
77 77 0 285 0 285 -72 72 -72 73 -226 0 -226 0 -72 -73z m338 -55 l175 -17 3
-287 2 -288 -219 0 -220 0 -5 33 c-3 17 -13 113 -21 212 l-16 180 31 84 c17
46 33 88 36 92 7 12 26 11 234 -9z"/>
<path d="M3622 2957 l-72 -73 2 -294 3 -293 87 -69 87 -69 238 16 c131 9 248
18 260 21 16 3 26 19 42 66 l21 61 -293 -6 -293 -6 -22 107 c-12 59 -22 110
-22 115 0 4 142 7 315 7 l315 0 0 172 0 173 -72 72 -72 73 -226 0 -226 0 -72
-73z m328 -53 c96 -9 180 -22 186 -28 6 -6 16 -42 22 -81 6 -38 14 -85 18
-102 l7 -33 -257 0 -256 0 0 87 0 87 42 43 c23 24 47 43 53 43 5 0 89 -7 185
-16z"/>
<path d="M477 1726 c-110 -40 -187 -151 -187 -270 0 -90 25 -152 84 -212 83
-83 93 -84 526 -84 435 0 446 2 526 84 81 83 104 186 68 306 -22 74 -100 152
-174 174 -73 22 -783 23 -843 2z m558 -206 l-48 -70 48 -70 c27 -39 46 -72 44
-74 -6 -5 -359 136 -359 144 0 8 353 149 359 144 2 -2 -17 -35 -44 -74z"/>
<path d="M1857 1726 c-110 -40 -187 -151 -187 -270 0 -90 25 -152 84 -212 83
-83 93 -84 526 -84 435 0 446 2 526 84 81 83 104 186 68 306 -22 74 -100 152
-174 174 -73 22 -783 23 -843 2z m521 -237 c45 -17 82 -35 82 -39 0 -8 -353
-149 -359 -144 -2 2 17 35 44 74 l48 70 -46 68 c-26 37 -47 70 -47 74 0 6 38
-8 278 -103z"/>
<path d="M3237 1726 c-110 -40 -187 -151 -187 -270 0 -90 25 -152 84 -212 83
-83 93 -84 526 -84 435 0 446 2 526 84 81 83 104 186 68 306 -22 74 -100 152
-174 174 -73 22 -783 23 -843 2z m501 -146 c130 -79 74 -280 -78 -280 -152 0
-208 201 -78 280 43 26 113 26 156 0z"/>
</g>
</svg>
